<svg xmlns="http://www.w3.org/2000/svg" width="1100" height="560" viewBox="0 0 1100 560">
<rect width="100%" height="100%" fill="white"/>
<text x="550.0" y="30" text-anchor="middle" font-size="22" font-family="Arial">Server Score Comparison</text>
<line x1="70" y1="380" x2="1060" y2="380" stroke="black"/>
<line x1="70" y1="50" x2="70" y2="380" stroke="black"/>
<rect x="85.0" y="50.0" width="147.0" height="330.0" fill="#3562cc" opacity="0.85"/>
<text x="158.5" y="44.0" text-anchor="middle" font-size="12" font-family="Arial">0.622</text>
<text x="158.5" y="398.0" transform="rotate(25 158.5,398.0)" text-anchor="start" font-size="11" font-family="Arial">exp3_fp8_static_mixed512</text>
<rect x="245.0" y="55.8" width="147.0" height="324.2" fill="#3562cc" opacity="0.85"/>
<text x="318.5" y="49.8" text-anchor="middle" font-size="12" font-family="Arial">0.619</text>
<text x="318.5" y="398.0" transform="rotate(25 318.5,398.0)" text-anchor="start" font-size="11" font-family="Arial">exp3_fp8_static_mixed512</text>
<rect x="405.0" y="76.1" width="147.0" height="303.9" fill="#3562cc" opacity="0.85"/>
<text x="478.5" y="70.1" text-anchor="middle" font-size="12" font-family="Arial">0.611</text>
<text x="478.5" y="398.0" transform="rotate(25 478.5,398.0)" text-anchor="start" font-size="11" font-family="Arial">exp2_fp8_static_manta256</text>
<rect x="565.0" y="77.3" width="147.0" height="302.7" fill="#3562cc" opacity="0.85"/>
<text x="638.5" y="71.3" text-anchor="middle" font-size="12" font-family="Arial">0.610</text>
<text x="638.5" y="398.0" transform="rotate(25 638.5,398.0)" text-anchor="start" font-size="11" font-family="Arial">FP8_dynamic_base</text>
<rect x="725.0" y="317.2" width="147.0" height="62.8" fill="#3562cc" opacity="0.85"/>
<text x="798.5" y="311.2" text-anchor="middle" font-size="12" font-family="Arial">0.505</text>
<text x="798.5" y="398.0" transform="rotate(25 798.5,398.0)" text-anchor="start" font-size="11" font-family="Arial">exp_r1_fp8_static_m224_p288_t512</text>
<rect x="885.0" y="380.0" width="147.0" height="0.0" fill="#3562cc" opacity="0.85"/>
<text x="958.5" y="374.0" text-anchor="middle" font-size="12" font-family="Arial">0.478</text>
<text x="958.5" y="398.0" transform="rotate(25 958.5,398.0)" text-anchor="start" font-size="11" font-family="Arial">exp_u1_u2_klmix_static</text>
<line x1="65" y1="380.0" x2="70" y2="380.0" stroke="black"/>
<text x="60" y="384.0" text-anchor="end" font-size="11" font-family="Arial">0.478</text>
<line x1="65" y1="215.0" x2="70" y2="215.0" stroke="black"/>
<text x="60" y="219.0" text-anchor="end" font-size="11" font-family="Arial">0.550</text>
<line x1="65" y1="50.0" x2="70" y2="50.0" stroke="black"/>
<text x="60" y="54.0" text-anchor="end" font-size="11" font-family="Arial">0.622</text>
</svg>