<svg xmlns="http://www.w3.org/2000/svg" width="820" height="620" viewBox="0 0 820 620">
<rect width="100%" height="100%" fill="white"/>
<text x="410.0" y="34" text-anchor="middle" font-size="22" font-family="Arial">Local vs Server (Available Pairs)</text>
<line x1="80" y1="560" x2="780" y2="560" stroke="black"/>
<line x1="80" y1="60" x2="80" y2="560" stroke="black"/>
<text x="410.0" y="606" text-anchor="middle" font-size="14" font-family="Arial">Local Overall</text>
<text x="20" y="310.0" transform="rotate(-90 20,310.0)" text-anchor="middle" font-size="14" font-family="Arial">Server Score</text>
<circle cx="663.8" cy="60.0" r="5" fill="#c9413a"/>
<text x="670.8" y="53.0" font-size="11" font-family="Arial">exp3_fp8_static_mixed512</text>
<circle cx="597.0" cy="99.5" r="5" fill="#c9413a"/>
<text x="604.0" y="92.5" font-size="11" font-family="Arial">exp2_fp8_static_manta256</text>
<circle cx="80.0" cy="101.4" r="5" fill="#c9413a"/>
<text x="87.0" y="94.4" font-size="11" font-family="Arial">FP8_dynamic_base</text>
<circle cx="780.0" cy="560.0" r="5" fill="#c9413a"/>
<text x="787.0" y="553.0" font-size="11" font-family="Arial">exp_u1_u2_klmix_static</text>
<circle cx="527.3" cy="464.9" r="5" fill="#c9413a"/>
<text x="534.3" y="457.9" font-size="11" font-family="Arial">exp_r1_fp8_static_m224_p288_t512</text>
<line x1="80.0" y1="560" x2="80.0" y2="565" stroke="black"/>
<text x="80.0" y="580" text-anchor="middle" font-size="11" font-family="Arial">0.432</text>
<line x1="430.0" y1="560" x2="430.0" y2="565" stroke="black"/>
<text x="430.0" y="580" text-anchor="middle" font-size="11" font-family="Arial">0.444</text>
<line x1="780.0" y1="560" x2="780.0" y2="565" stroke="black"/>
<text x="780.0" y="580" text-anchor="middle" font-size="11" font-family="Arial">0.456</text>
<line x1="75" y1="560.0" x2="80" y2="560.0" stroke="black"/>
<text x="70" y="564.0" text-anchor="end" font-size="11" font-family="Arial">0.478</text>
<line x1="75" y1="310.0" x2="80" y2="310.0" stroke="black"/>
<text x="70" y="314.0" text-anchor="end" font-size="11" font-family="Arial">0.550</text>
<line x1="75" y1="60.0" x2="80" y2="60.0" stroke="black"/>
<text x="70" y="64.0" text-anchor="end" font-size="11" font-family="Arial">0.622</text>
</svg>